<svg xmlns="http://www.w3.org/2000/svg" width="36.985" height="36.985" viewBox="0 0 36.985 36.985">
  <path id="Path_7315" data-name="Path 7315" d="M810.159,58.967,797.1,72.028a2.249,2.249,0,0,1-3.182,0l-13.06-13.061a2.25,2.25,0,0,0-3.182,0h0a2.25,2.25,0,0,0,0,3.182l13.06,13.061a2.249,2.249,0,0,1,0,3.182l-13.06,13.061a2.25,2.25,0,0,0,0,3.181h0a2.25,2.25,0,0,0,3.182,0l13.06-13.061a2.249,2.249,0,0,1,3.182,0l13.061,13.061a2.25,2.25,0,0,0,3.182,0h0a2.249,2.249,0,0,0,0-3.181l-13.06-13.061a2.25,2.25,0,0,1,0-3.182l13.06-13.061a2.25,2.25,0,0,0,0-3.182h0A2.25,2.25,0,0,0,810.159,58.967Z" transform="translate(-777.015 -58.308)" fill="#fff"/>
</svg>
