<svg xmlns="http://www.w3.org/2000/svg" width="50.79" height="38.231" viewBox="0 0 50.79 38.231">
  <g id="list" transform="translate(0 -7.434)">
    <path id="Path_4701" data-name="Path 4701" d="M50.417,50.962H16.454a2.534,2.534,0,1,1,0-5.069H50.416a2.534,2.534,0,0,1,0,5.069Z" transform="translate(-2.161 -5.97)" fill="#fff"/>
    <path id="Path_4702" data-name="Path 4702" d="M50.417,32.131H16.454a2.534,2.534,0,1,1,0-5.069H50.416a2.534,2.534,0,0,1,0,5.069Z" transform="translate(-2.161 -3.047)" fill="#fff"/>
    <path id="Path_4703" data-name="Path 4703" d="M50.417,13.3H16.454a2.534,2.534,0,0,1,0-5.069H50.416a2.534,2.534,0,0,1,0,5.069Z" transform="translate(-2.161 -0.124)" fill="#fff"/>
    <circle id="Ellipse_43" data-name="Ellipse 43" cx="3.404" cy="3.404" r="3.404" transform="translate(0 7.434)" fill="#fff"/>
    <circle id="Ellipse_44" data-name="Ellipse 44" cx="3.404" cy="3.404" r="3.404" transform="translate(0 23.146)" fill="#fff"/>
    <circle id="Ellipse_45" data-name="Ellipse 45" cx="3.404" cy="3.404" r="3.404" transform="translate(0 38.857)" fill="#fff"/>
  </g>
</svg>
