<svg xmlns="http://www.w3.org/2000/svg" width="33" height="32.693" viewBox="0 0 33 32.693">
  <g id="Group_4097" data-name="Group 4097" transform="translate(-434 -2521.104)">
    <g id="Path_7312" data-name="Path 7312" transform="translate(434 2521.104)" fill="none">
      <path d="M16,0h1A16,16,0,0,1,33,16v.693a16,16,0,0,1-16,16H16a16,16,0,0,1-16-16V16A16,16,0,0,1,16,0Z" stroke="none"/>
      <path d="M 16 1.000001907348633 C 11.99334907531738 1.000001907348633 8.226520538330078 2.560272216796875 5.393400192260742 5.393402099609375 C 2.560270309448242 8.226522445678711 1 11.99335098266602 1 16.00000190734863 L 1 16.69302177429199 C 1 20.69967269897461 2.560270309448242 24.46650314331055 5.393400192260742 27.29962158203125 C 8.226520538330078 30.13275146484375 11.99334907531738 31.69302177429199 16 31.69302177429199 L 17 31.69302177429199 C 21.00664901733398 31.69302177429199 24.77347946166992 30.13275146484375 27.60659980773926 27.29962158203125 C 30.43972969055176 24.46650314331055 32 20.69967269897461 32 16.69302177429199 L 32 16.00000190734863 C 32 11.99335098266602 30.43972969055176 8.226522445678711 27.60659980773926 5.393402099609375 C 24.77347946166992 2.560272216796875 21.00664901733398 1.000001907348633 17 1.000001907348633 L 16 1.000001907348633 M 16 0 L 17 0 C 25.8365592956543 0 33 7.163442611694336 33 16.00000190734863 L 33 16.69302177429199 C 33 25.52958297729492 25.8365592956543 32.69302368164062 17 32.69302368164062 L 16 32.69302368164062 C 7.163440704345703 32.69302368164062 0 25.52958297729492 0 16.69302177429199 L 0 16.00000190734863 C 0 7.163442611694336 7.163440704345703 0 16 0 Z" stroke="none" fill="#ed1e24"/>
    </g>
    <g id="Group_5942" data-name="Group 5942" transform="translate(570.22 2125.324)">
      <g id="Group_294" data-name="Group 294">
        <g id="Group_292" data-name="Group 292">
          <path id="Path_7309" data-name="Path 7309" d="M-119.87,402.78a6.359,6.359,0,0,0-6.35,6.35c0,1.41.83,3.55,2.6,6.73,1.22,2.18,2.43,4.01,2.48,4.09l.87,1.32a.481.481,0,0,0,.66.14.436.436,0,0,0,.13-.14l.88-1.32c.05-.07,1.25-1.9,2.47-4.09,1.78-3.18,2.6-5.32,2.6-6.73A6.357,6.357,0,0,0-119.87,402.78Zm0,8.88a2.569,2.569,0,0,1-2.57-2.57,2.569,2.569,0,0,1,2.57-2.57,2.569,2.569,0,0,1,2.57,2.57,2.6,2.6,0,0,1-.75,1.82A2.6,2.6,0,0,1-119.87,411.66Z" fill="none" stroke="#fff" stroke-width="1"/>
        </g>
      </g>
    </g>
  </g>
</svg>
