<svg xmlns="http://www.w3.org/2000/svg" width="33" height="32.693" viewBox="0 0 33 32.693">
  <g id="Group_4098" data-name="Group 4098" transform="translate(-434 -2568.951)">
    <g id="Path_7313" data-name="Path 7313" transform="translate(434 2568.951)" fill="none">
      <path d="M16,0h1A16,16,0,0,1,33,16v.693a16,16,0,0,1-16,16H16a16,16,0,0,1-16-16V16A16,16,0,0,1,16,0Z" stroke="none"/>
      <path d="M 16 1.000001907348633 C 11.99334907531738 1.000001907348633 8.226520538330078 2.560272216796875 5.393400192260742 5.393402099609375 C 2.560270309448242 8.226522445678711 1 11.99335098266602 1 16.00000190734863 L 1 16.69302177429199 C 1 20.69967269897461 2.560270309448242 24.46650314331055 5.393400192260742 27.29962158203125 C 8.226520538330078 30.13275146484375 11.99334907531738 31.69302177429199 16 31.69302177429199 L 17 31.69302177429199 C 21.00664901733398 31.69302177429199 24.77347946166992 30.13275146484375 27.60659980773926 27.29962158203125 C 30.43972969055176 24.46650314331055 32 20.69967269897461 32 16.69302177429199 L 32 16.00000190734863 C 32 11.99335098266602 30.43972969055176 8.226522445678711 27.60659980773926 5.393402099609375 C 24.77347946166992 2.560272216796875 21.00664901733398 1.000001907348633 17 1.000001907348633 L 16 1.000001907348633 M 16 0 L 17 0 C 25.8365592956543 0 33 7.163442611694336 33 16.00000190734863 L 33 16.69302177429199 C 33 25.52958297729492 25.8365592956543 32.69302368164062 17 32.69302368164062 L 16 32.69302368164062 C 7.163440704345703 32.69302368164062 0 25.52958297729492 0 16.69302177429199 L 0 16.00000190734863 C 0 7.163442611694336 7.163440704345703 0 16 0 Z" stroke="none" fill="#ed1e24"/>
    </g>
    <path id="Path_7310" data-name="Path 7310" d="M664.755,14.381a6.93,6.93,0,0,1,1.687-6.894.525.525,0,0,1,.268-.145c1.049-.2,1.735-.162,2.04.145a15,15,0,0,1,1.982,4.067c0,.7-.342,1.324-1.29,2.309a7.016,7.016,0,0,0,2.543,3.244A12.572,12.572,0,0,0,675.2,19.2a7.4,7.4,0,0,0,1.9-2.141.5.5,0,0,1,.065-.08,1.178,1.178,0,0,1,1.383-.1,10.576,10.576,0,0,1,1.037.642c.6.4,1.421.939,2.385,1.48a.525.525,0,0,1,.252.553c0,.043-.006.087-.01.13a4.825,4.825,0,0,1-5.233,4.393,10.888,10.888,0,0,1-1.623-.131C670.286,23.179,666.311,18.45,664.755,14.381Z" transform="translate(-222.951 2570.234)" fill="none" stroke="#fff" stroke-miterlimit="10" stroke-width="1"/>
  </g>
</svg>
