<svg xmlns="http://www.w3.org/2000/svg" width="20" height="20.184" viewBox="0 0 20 20.184">
  <g id="store" transform="translate(0.5 0.5)">
    <line id="Line_104" data-name="Line 104" x2="19" transform="translate(0 19.184)" fill="none" stroke="#fff" stroke-linecap="round" stroke-linejoin="round" stroke-width="1"/>
    <line id="Line_105" data-name="Line 105" y2="8" transform="translate(1 11.184)" fill="none" stroke="#fff" stroke-linecap="round" stroke-linejoin="round" stroke-width="1"/>
    <line id="Line_106" data-name="Line 106" y2="8" transform="translate(8 11.184)" fill="none" stroke="#fff" stroke-linecap="round" stroke-linejoin="round" stroke-width="1"/>
    <line id="Line_107" data-name="Line 107" y2="8" transform="translate(17 11.184)" fill="none" stroke="#fff" stroke-linecap="round" stroke-linejoin="round" stroke-width="1"/>
    <line id="Line_108" data-name="Line 108" transform="translate(6 13.184)" fill="none" stroke="#fff" stroke-linecap="round" stroke-linejoin="round" stroke-width="1"/>
    <line id="Line_109" data-name="Line 109" y1="4" x2="4" transform="translate(12 13.184)" fill="none" stroke="#fff" stroke-linecap="round" stroke-linejoin="round" stroke-width="1"/>
    <line id="Line_110" data-name="Line 110" y1="2" x2="2" transform="translate(14 15.184)" fill="none" stroke="#fff" stroke-linecap="round" stroke-linejoin="round" stroke-width="1"/>
    <path id="Path_588" data-name="Path 588" d="M73.567,178.546a1.857,1.857,0,0,1-3.715,0h0a1.857,1.857,0,0,1-3.715,0h0a1.857,1.857,0,0,1-3.715,0h0a1.857,1.857,0,0,1-3.715,0h0a1.857,1.857,0,0,1-3.715,0v-1.238H73.565Z" transform="translate(-54.874 -170.81)" fill="none" stroke="#fff" stroke-linecap="round" stroke-linejoin="round" stroke-width="1"/>
    <line id="Line_111" data-name="Line 111" x2="1" y2="6" transform="translate(14 0.184)" fill="none" stroke="#fff" stroke-linecap="round" stroke-linejoin="round" stroke-width="1"/>
    <line id="Line_112" data-name="Line 112" y2="6" transform="translate(11 0.184)" fill="none" stroke="#fff" stroke-linecap="round" stroke-linejoin="round" stroke-width="1"/>
    <line id="Line_113" data-name="Line 113" x1="1" y2="6" transform="translate(4 0.184)" fill="none" stroke="#fff" stroke-linecap="round" stroke-linejoin="round" stroke-width="1"/>
    <line id="Line_114" data-name="Line 114" y2="6" transform="translate(8 0.184)" fill="none" stroke="#fff" stroke-linecap="round" stroke-linejoin="round" stroke-width="1"/>
    <path id="Path_589" data-name="Path 589" d="M55,162.805l1.547-6.5H72.018l1.547,6.5" transform="translate(-54.874 -156.308)" fill="none" stroke="#fff" stroke-linecap="round" stroke-linejoin="round" stroke-width="1"/>
  </g>
</svg>
