<svg xmlns="http://www.w3.org/2000/svg" width="117" height="117" viewBox="0 0 117 117">
  <g id="Group_4" data-name="Group 4" transform="translate(-4477 -13)">
    <circle id="Ellipse_1" data-name="Ellipse 1" cx="58.5" cy="58.5" r="58.5" transform="translate(4477 13)"/>
    <g id="Group_3" data-name="Group 3" transform="translate(4427.256 -60.457)">
      <g id="Group_1" data-name="Group 1" transform="translate(84.426 110.457)">
        <path id="Path_1" data-name="Path 1" d="M140.225,122.957h0l.045.027.133.064.269.114.251.094a4.26,4.26,0,0,0,.535.166l.045.009a6.423,6.423,0,0,1,.874.209q.41.128.825.233c.2.043.409.076.617.1l.485.062.448.048q.336.039.676.052a14.868,14.868,0,0,0,1.722-.1,13.142,13.142,0,0,0,1.621-.282,7.928,7.928,0,0,0,1.4-.473,4.723,4.723,0,0,0,.738-.414,3.26,3.26,0,0,0,.764-.721,2.04,2.04,0,0,0,.244-1.983,2.438,2.438,0,0,0-.768-1.063,3.974,3.974,0,0,0-1.646-.857c.208-.142.412-.287.615-.435a4.415,4.415,0,0,0,.964-1.036,3.888,3.888,0,0,0,.358-.656,2.908,2.908,0,0,0,.233-.913,3.483,3.483,0,0,0-.542-2.074,5.161,5.161,0,0,0-.641-.839,5.355,5.355,0,0,0-1.572-1.195,5.707,5.707,0,0,0-.828-.321,7.609,7.609,0,0,0-1.755-.3,9.348,9.348,0,0,0-2.761.242,6.452,6.452,0,0,0-1.1.373,7.655,7.655,0,0,0-1.541.935,3.447,3.447,0,0,0-.584.58,2.439,2.439,0,0,0-.472,1.2,2.113,2.113,0,0,0,.354,1.451,2.427,2.427,0,0,0,.526.528,3.639,3.639,0,0,0,.592.358,5.027,5.027,0,0,0,1.378.438l.019,0c.374.05.75.086,1.125.108l.6.034c1.261.074.507-.772.289-.886l-.258-.368c-.064-.092-.126-.186-.186-.282a1.669,1.669,0,0,1-.074-1.266,2.145,2.145,0,0,1,.906-.956.846.846,0,0,1,.53-.034,1.807,1.807,0,0,1,.682.413,1.042,1.042,0,0,1,.18.223c.013.022.026.044.038.066.858,1.6.616,3.662-2.5,3.879-.2.019-.4.031-.6.037-.332.013-.342.016-.618.037h-.011c-.819-.168-2.685,1.05-.348,1.883l3.892.916.023.012a.988.988,0,0,1,.468.5.6.6,0,0,1,.047.259.321.321,0,0,1-.064.174,1,1,0,0,1-.253.221,2.4,2.4,0,0,1-.446.216,4.5,4.5,0,0,1-2,.217,6.705,6.705,0,0,1-.876-.163q-.447-.115-.888-.25-.55-.167-1.105-.323a1.36,1.36,0,0,0-.313-.048C138.721,121.234,139.266,122.421,140.225,122.957Z" transform="translate(-127.107 -110.457)" fill="none"/>
        <path id="Path_2" data-name="Path 2" d="M122.993,122.284l.023-4.616a1.752,1.752,0,0,0-.028-.367,2.825,2.825,0,0,0-.3-.889,4.925,4.925,0,0,0-2.023-1.87,5.751,5.751,0,0,0-2.038-.717q-.329-.045-.66-.06l-.533-.031q-.621-.037-1.244-.032c-.267.01-.534.028-.8.053a9.41,9.41,0,0,0-2.7.688,5.326,5.326,0,0,0-.5.216,1.034,1.034,0,0,0-.648.955,1,1,0,0,0,.657.88,3.142,3.142,0,0,0,1.155.19,2.414,2.414,0,0,0,.647-.077,3.484,3.484,0,0,0,.582-.246,3.9,3.9,0,0,1,.375-.174,2.1,2.1,0,0,1,.433-.086q.293-.029.586-.036c.2,0,.4,0,.594.016.109.008.216.018.322.032a1.256,1.256,0,0,1,.989.566,1.868,1.868,0,0,1,.2.529,4.958,4.958,0,0,1,.105.754c.014.256.02.513.021.769l0,1.064q-.006,2.542-.035,5.085.7.021,1.409.014a4.482,4.482,0,0,0,2.1-.618C122.693,123.68,122.987,123.5,122.993,122.284Z" transform="translate(-111.394 -112.288)" fill="none"/>
        <path id="Path_3" data-name="Path 3" d="M112.432,130.167a1.8,1.8,0,0,0,.333,0,3.907,3.907,0,0,0,1.471-.364,4.117,4.117,0,0,0,1.3-1.1c.064-.074.126-.151.184-.23a1.594,1.594,0,0,0,.289-.566l.016-.086c.007-.043.02-.261.023-.34l.014-.574,0-.516q.007-.442-.017-.883a2.843,2.843,0,0,0-.381-1.2,2.287,2.287,0,0,0-1.051-.91,2.384,2.384,0,0,0-1.817-.056,2.407,2.407,0,0,0-1.454,1.545,2.874,2.874,0,0,0-.12.748c-.012.217-.02.436-.022.654-.013,1.307.007,2.443.037,3.772Z" transform="translate(-111.201 -117.646)" fill="none"/>
        <path id="Path_4" data-name="Path 4" d="M169.346,115.922v5.186l.706.026c.3.011.6.011.906,0a3.26,3.26,0,0,0,1.282-.359,3.525,3.525,0,0,0,1.159-.943,8.026,8.026,0,0,0,.546-.845,1.132,1.132,0,0,0,.135-.286,1.293,1.293,0,0,0,.041-.39c0,.016,0,.031,0,.046l-.01-2.607a2.01,2.01,0,0,0-.217-.9,3.472,3.472,0,0,0-.321-.556l-.024-.033a2.454,2.454,0,0,0-.869-.7,2.177,2.177,0,0,0-1.253-.19,2.427,2.427,0,0,0-1.918,1.677,3.913,3.913,0,0,0-.124.468A1.614,1.614,0,0,0,169.346,115.922Z" transform="translate(-144.005 -112.091)" fill="none"/>
        <path id="Path_5" data-name="Path 5" d="M187.335,118.015c.152-.021.3-.044.456-.069a2.69,2.69,0,0,0,1.573-.731l.042-.047a1.012,1.012,0,0,0-.129-1.453,1.112,1.112,0,0,0-.4-.2,1.711,1.711,0,0,0-.816-.02,1.472,1.472,0,0,0-.854.529,2.3,2.3,0,0,0-.4,1.131c-.011.088-.021.177-.03.265C186.747,117.74,186.815,118.087,187.335,118.015Zm-3.035-4.7a2.588,2.588,0,0,0,.3.143c.075.028.434.154.527.179a3.375,3.375,0,0,0,.669.09,5.432,5.432,0,0,0,.938-.065,2.3,2.3,0,0,0,.3-.112c.166-.077.33-.155.494-.235.083-.041.17-.077.256-.111a2.622,2.622,0,0,1,.375-.1c.149-.028.3-.053.451-.074a6.47,6.47,0,0,1,.943-.066,4.268,4.268,0,0,1,.9.121,2.617,2.617,0,0,1,.877.381,3.694,3.694,0,0,1,1.51,2.058,5.548,5.548,0,0,1-.047,3.295,3.877,3.877,0,0,1-.35.782,5.284,5.284,0,0,1-1.658,1.554,2.318,2.318,0,0,1-1.651.187,3.335,3.335,0,0,1-1.243-.815,2.02,2.02,0,0,1-.278-.422,2.4,2.4,0,0,1-.189-.545c-.037-.176-.068-.354-.1-.532.2-.028.2-.025.346-.041a2.357,2.357,0,0,1,.26-.017h.034l.109-.018.14-.031c.375-.089.7-.183,1.073-.285a3.027,3.027,0,0,0,.312-.1q.282-.139.553-.3l.255-.147c.127-.074.254-.152.376-.234a3.175,3.175,0,0,0,.471-.41,1.447,1.447,0,0,0,.375-1.5,1.98,1.98,0,0,0-.406-.664,2.489,2.489,0,0,0-.625-.5,3.37,3.37,0,0,0-.782-.317,5.123,5.123,0,0,0-.805-.148,8.258,8.258,0,0,0-.868-.042,8.538,8.538,0,0,0-1.809.206,7.983,7.983,0,0,0-.916.26,5.447,5.447,0,0,0-1,.464,6.328,6.328,0,0,0-.907.67,3.32,3.32,0,0,0-.339.348,8.4,8.4,0,0,0-.594,1.051,4.234,4.234,0,0,0-.174.551,3.194,3.194,0,0,0-.026,1.3q.056.322.143.638a3.1,3.1,0,0,0,.87,1.635,5.853,5.853,0,0,0,1.034.918c.141.1.286.19.433.279q.32.178.65.337l.33.162.221.105c.133.065.27.126.409.181s.876.187,1.007.213c.276.054.554.1.832.142.376.044.754.075,1.132.092.4.017.843.007,1.245-.013a13.6,13.6,0,0,0,1.573-.149,9.055,9.055,0,0,0,1.7-.458c.179-.068.353-.141.527-.221q.312-.138.611-.3c.18-.1.562-.37.747-.5q.369-.252.723-.522a4.605,4.605,0,0,0,.487-.444c.168-.195.739-1.01.877-1.248a5.285,5.285,0,0,0,.646-1.952,6.492,6.492,0,0,0-.134-2.22,7.042,7.042,0,0,0-.236-.832,4.95,4.95,0,0,0-1.018-1.711,7.674,7.674,0,0,0-1.2-1.075q-.282-.216-.585-.407c-.216-.126-1.3-.592-1.544-.677a10.346,10.346,0,0,0-1.32-.332,14.934,14.934,0,0,0-2.866-.24,12.313,12.313,0,0,0-2.864.359,8.065,8.065,0,0,0-1.386.457c-.42.187-.965.477-1.444.737-.661.361-.384.584-.215.788.032.047.064.092.1.136l.026.034.064.056.024.018.092.061C184.131,113.221,184.231,113.275,184.3,113.313Z" transform="translate(-151.328 -110.502)" fill="none"/>
        <path id="Path_6" data-name="Path 6" d="M140.225,122.957h0l.045.027.133.064.269.114.251.094a4.26,4.26,0,0,0,.535.166l.045.009a6.423,6.423,0,0,1,.874.209q.41.128.825.233c.2.043.409.076.617.1l.485.062.448.048q.336.039.676.052a14.868,14.868,0,0,0,1.722-.1,13.142,13.142,0,0,0,1.621-.282,7.928,7.928,0,0,0,1.4-.473,4.723,4.723,0,0,0,.738-.414,3.26,3.26,0,0,0,.764-.721,2.04,2.04,0,0,0,.244-1.983,2.438,2.438,0,0,0-.768-1.063,3.974,3.974,0,0,0-1.646-.857c.208-.142.412-.287.615-.435a4.415,4.415,0,0,0,.964-1.036,3.888,3.888,0,0,0,.358-.656,2.908,2.908,0,0,0,.233-.913,3.483,3.483,0,0,0-.542-2.074,5.161,5.161,0,0,0-.641-.839,5.355,5.355,0,0,0-1.572-1.195,5.707,5.707,0,0,0-.828-.321,7.609,7.609,0,0,0-1.755-.3,9.348,9.348,0,0,0-2.761.242,6.452,6.452,0,0,0-1.1.373,7.655,7.655,0,0,0-1.541.935,3.447,3.447,0,0,0-.584.58,2.439,2.439,0,0,0-.472,1.2,2.113,2.113,0,0,0,.354,1.451,2.427,2.427,0,0,0,.526.528,3.639,3.639,0,0,0,.592.358,5.027,5.027,0,0,0,1.378.438l.019,0c.374.05.75.086,1.125.108l.6.034c1.261.074.507-.772.289-.886l-.258-.368c-.064-.092-.126-.186-.186-.282a1.669,1.669,0,0,1-.074-1.266,2.145,2.145,0,0,1,.906-.956.846.846,0,0,1,.53-.034,1.807,1.807,0,0,1,.682.413,1.042,1.042,0,0,1,.18.223c.013.022.026.044.038.066.858,1.6.616,3.662-2.5,3.879-.2.019-.4.031-.6.037-.332.013-.342.016-.618.037h-.011c-.819-.168-2.685,1.05-.348,1.883l3.892.916.023.012a.988.988,0,0,1,.468.5.6.6,0,0,1,.047.259.321.321,0,0,1-.064.174,1,1,0,0,1-.253.221,2.4,2.4,0,0,1-.446.216,4.5,4.5,0,0,1-2,.217,6.705,6.705,0,0,1-.876-.163q-.447-.115-.888-.25-.55-.167-1.105-.323a1.36,1.36,0,0,0-.313-.048c-2.257.032-1.712,1.219-.753,1.756" transform="translate(-127.107 -110.457)" fill="#e50019" fill-rule="evenodd"/>
        <path id="Path_7" data-name="Path 7" d="M140.225,122.957h0l.045.027.133.064.269.114.251.094a4.26,4.26,0,0,0,.535.166l.045.009a6.423,6.423,0,0,1,.874.209q.41.128.825.233c.2.043.409.076.617.1l.485.062.448.048q.336.039.676.052a14.868,14.868,0,0,0,1.722-.1,13.142,13.142,0,0,0,1.621-.282,7.928,7.928,0,0,0,1.4-.473,4.723,4.723,0,0,0,.738-.414,3.26,3.26,0,0,0,.764-.721,2.04,2.04,0,0,0,.244-1.983,2.438,2.438,0,0,0-.768-1.063,3.974,3.974,0,0,0-1.646-.857c.208-.142.412-.287.615-.435a4.415,4.415,0,0,0,.964-1.036,3.888,3.888,0,0,0,.358-.656,2.908,2.908,0,0,0,.233-.913,3.483,3.483,0,0,0-.542-2.074,5.161,5.161,0,0,0-.641-.839,5.355,5.355,0,0,0-1.572-1.195,5.707,5.707,0,0,0-.828-.321,7.609,7.609,0,0,0-1.755-.3,9.348,9.348,0,0,0-2.761.242,6.452,6.452,0,0,0-1.1.373,7.655,7.655,0,0,0-1.541.935,3.447,3.447,0,0,0-.584.58,2.439,2.439,0,0,0-.472,1.2,2.113,2.113,0,0,0,.354,1.451,2.427,2.427,0,0,0,.526.528,3.639,3.639,0,0,0,.592.358,5.027,5.027,0,0,0,1.378.438l.019,0c.374.05.75.086,1.125.108l.6.034c1.261.074.507-.772.289-.886l-.258-.368c-.064-.092-.126-.186-.186-.282a1.669,1.669,0,0,1-.074-1.266,2.145,2.145,0,0,1,.906-.956.846.846,0,0,1,.53-.034,1.807,1.807,0,0,1,.682.413,1.042,1.042,0,0,1,.18.223c.013.022.026.044.038.066.858,1.6.616,3.662-2.5,3.879-.2.019-.4.031-.6.037-.332.013-.342.016-.618.037h-.011c-.819-.168-2.685,1.05-.348,1.883l3.892.916.023.012a.988.988,0,0,1,.468.5.6.6,0,0,1,.047.259.321.321,0,0,1-.064.174,1,1,0,0,1-.253.221,2.4,2.4,0,0,1-.446.216,4.5,4.5,0,0,1-2,.217,6.705,6.705,0,0,1-.876-.163q-.447-.115-.888-.25-.55-.167-1.105-.323a1.36,1.36,0,0,0-.313-.048C138.721,121.234,139.266,122.421,140.225,122.957Z" transform="translate(-127.107 -110.457)" fill="none"/>
        <path id="Path_8" data-name="Path 8" d="M122.993,122.284l.023-4.616a1.752,1.752,0,0,0-.028-.367,2.825,2.825,0,0,0-.3-.889,4.925,4.925,0,0,0-2.023-1.87,5.751,5.751,0,0,0-2.038-.717q-.329-.045-.66-.06l-.533-.031q-.621-.037-1.244-.032c-.267.01-.534.028-.8.053a9.41,9.41,0,0,0-2.7.688,5.326,5.326,0,0,0-.5.216,1.034,1.034,0,0,0-.648.955,1,1,0,0,0,.657.88,3.142,3.142,0,0,0,1.155.19,2.414,2.414,0,0,0,.647-.077,3.484,3.484,0,0,0,.582-.246,3.9,3.9,0,0,1,.375-.174,2.1,2.1,0,0,1,.433-.086q.293-.029.586-.036c.2,0,.4,0,.594.016.109.008.216.018.322.032a1.256,1.256,0,0,1,.989.566,1.868,1.868,0,0,1,.2.529,4.958,4.958,0,0,1,.105.754c.014.256.02.513.021.769l0,1.064q-.006,2.542-.035,5.085.7.021,1.409.014a4.482,4.482,0,0,0,2.1-.618c1-.6,1.3-.78,1.3-1.994" transform="translate(-111.394 -112.288)" fill="#e50019" fill-rule="evenodd"/>
        <path id="Path_9" data-name="Path 9" d="M122.993,122.284l.023-4.616a1.752,1.752,0,0,0-.028-.367,2.825,2.825,0,0,0-.3-.889,4.925,4.925,0,0,0-2.023-1.87,5.751,5.751,0,0,0-2.038-.717q-.329-.045-.66-.06l-.533-.031q-.621-.037-1.244-.032c-.267.01-.534.028-.8.053a9.41,9.41,0,0,0-2.7.688,5.326,5.326,0,0,0-.5.216,1.034,1.034,0,0,0-.648.955,1,1,0,0,0,.657.88,3.142,3.142,0,0,0,1.155.19,2.414,2.414,0,0,0,.647-.077,3.484,3.484,0,0,0,.582-.246,3.9,3.9,0,0,1,.375-.174,2.1,2.1,0,0,1,.433-.086q.293-.029.586-.036c.2,0,.4,0,.594.016.109.008.216.018.322.032a1.256,1.256,0,0,1,.989.566,1.868,1.868,0,0,1,.2.529,4.958,4.958,0,0,1,.105.754c.014.256.02.513.021.769l0,1.064q-.006,2.542-.035,5.085.7.021,1.409.014a4.482,4.482,0,0,0,2.1-.618C122.693,123.68,122.987,123.5,122.993,122.284Z" transform="translate(-111.394 -112.288)" fill="none"/>
        <path id="Path_10" data-name="Path 10" d="M112.432,130.167a1.8,1.8,0,0,0,.333,0,3.907,3.907,0,0,0,1.471-.364,4.117,4.117,0,0,0,1.3-1.1c.064-.074.126-.151.184-.23a1.594,1.594,0,0,0,.289-.566l.016-.086c.007-.043.02-.261.023-.34l.014-.574,0-.516q.007-.442-.017-.883a2.843,2.843,0,0,0-.381-1.2,2.287,2.287,0,0,0-1.051-.91,2.384,2.384,0,0,0-1.817-.056,2.407,2.407,0,0,0-1.454,1.545,2.874,2.874,0,0,0-.12.748c-.012.217-.02.436-.022.654-.013,1.307.007,2.443.037,3.772Z" transform="translate(-111.201 -117.646)" fill="#e50019" fill-rule="evenodd"/>
        <path id="Path_11" data-name="Path 11" d="M112.432,130.167a1.8,1.8,0,0,0,.333,0,3.907,3.907,0,0,0,1.471-.364,4.117,4.117,0,0,0,1.3-1.1c.064-.074.126-.151.184-.23a1.594,1.594,0,0,0,.289-.566l.016-.086c.007-.043.02-.261.023-.34l.014-.574,0-.516q.007-.442-.017-.883a2.843,2.843,0,0,0-.381-1.2,2.287,2.287,0,0,0-1.051-.91,2.384,2.384,0,0,0-1.817-.056,2.407,2.407,0,0,0-1.454,1.545,2.874,2.874,0,0,0-.12.748c-.012.217-.02.436-.022.654-.013,1.307.007,2.443.037,3.772Z" transform="translate(-111.201 -117.646)" fill="none"/>
        <path id="Path_12" data-name="Path 12" d="M169.346,115.922v5.186l.706.026c.3.011.6.011.906,0a3.26,3.26,0,0,0,1.282-.359,3.525,3.525,0,0,0,1.159-.943,8.026,8.026,0,0,0,.546-.845,1.132,1.132,0,0,0,.135-.286,1.293,1.293,0,0,0,.041-.39c0,.016,0,.031,0,.046l-.01-2.607a2.01,2.01,0,0,0-.217-.9,3.472,3.472,0,0,0-.321-.556l-.024-.033a2.454,2.454,0,0,0-.869-.7,2.177,2.177,0,0,0-1.253-.19,2.427,2.427,0,0,0-1.918,1.677,3.913,3.913,0,0,0-.124.468,1.614,1.614,0,0,0-.039.4" transform="translate(-144.005 -112.091)" fill="#e50019" fill-rule="evenodd"/>
        <path id="Path_13" data-name="Path 13" d="M169.346,115.922v5.186l.706.026c.3.011.6.011.906,0a3.26,3.26,0,0,0,1.282-.359,3.525,3.525,0,0,0,1.159-.943,8.026,8.026,0,0,0,.546-.845,1.132,1.132,0,0,0,.135-.286,1.293,1.293,0,0,0,.041-.39c0,.016,0,.031,0,.046l-.01-2.607a2.01,2.01,0,0,0-.217-.9,3.472,3.472,0,0,0-.321-.556l-.024-.033a2.454,2.454,0,0,0-.869-.7,2.177,2.177,0,0,0-1.253-.19,2.427,2.427,0,0,0-1.918,1.677,3.913,3.913,0,0,0-.124.468A1.614,1.614,0,0,0,169.346,115.922Z" transform="translate(-144.005 -112.091)" fill="none"/>
        <path id="Path_14" data-name="Path 14" d="M187.335,118.015c.152-.021.3-.044.456-.069a2.69,2.69,0,0,0,1.573-.731l.042-.047a1.012,1.012,0,0,0-.129-1.453,1.112,1.112,0,0,0-.4-.2,1.711,1.711,0,0,0-.816-.02,1.472,1.472,0,0,0-.854.529,2.3,2.3,0,0,0-.4,1.131c-.011.088-.021.177-.03.265-.032.323.036.669.556.6m-3.035-4.7a2.588,2.588,0,0,0,.3.143c.075.028.434.154.527.179a3.375,3.375,0,0,0,.669.09,5.432,5.432,0,0,0,.938-.065,2.3,2.3,0,0,0,.3-.112c.166-.077.33-.155.494-.235.083-.041.17-.077.256-.111a2.622,2.622,0,0,1,.375-.1c.149-.028.3-.053.451-.074a6.47,6.47,0,0,1,.943-.066,4.268,4.268,0,0,1,.9.121,2.617,2.617,0,0,1,.877.381,3.694,3.694,0,0,1,1.51,2.058,5.548,5.548,0,0,1-.047,3.295,3.877,3.877,0,0,1-.35.782,5.284,5.284,0,0,1-1.658,1.554,2.318,2.318,0,0,1-1.651.187,3.335,3.335,0,0,1-1.243-.815,2.02,2.02,0,0,1-.278-.422,2.4,2.4,0,0,1-.189-.545c-.037-.176-.068-.354-.1-.532.2-.028.2-.025.346-.041a2.357,2.357,0,0,1,.26-.017h.034l.109-.018.14-.031c.375-.089.7-.183,1.073-.285a3.027,3.027,0,0,0,.312-.1q.282-.139.553-.3l.255-.147c.127-.074.254-.152.376-.234a3.175,3.175,0,0,0,.471-.41,1.447,1.447,0,0,0,.375-1.5,1.98,1.98,0,0,0-.406-.664,2.489,2.489,0,0,0-.625-.5,3.37,3.37,0,0,0-.782-.317,5.123,5.123,0,0,0-.805-.148,8.258,8.258,0,0,0-.868-.042,8.538,8.538,0,0,0-1.809.206,7.983,7.983,0,0,0-.916.26,5.447,5.447,0,0,0-1,.464,6.328,6.328,0,0,0-.907.67,3.32,3.32,0,0,0-.339.348,8.4,8.4,0,0,0-.594,1.051,4.234,4.234,0,0,0-.174.551,3.194,3.194,0,0,0-.026,1.3q.056.322.143.638a3.1,3.1,0,0,0,.87,1.635,5.853,5.853,0,0,0,1.034.918c.141.1.286.19.433.279q.32.178.65.337l.33.162.221.105c.133.065.27.126.409.181s.876.187,1.007.213c.276.054.554.1.832.142.376.044.754.075,1.132.092.4.017.843.007,1.245-.013a13.6,13.6,0,0,0,1.573-.149,9.055,9.055,0,0,0,1.7-.458c.179-.068.353-.141.527-.221q.312-.138.611-.3c.18-.1.562-.37.747-.5q.369-.252.723-.522a4.605,4.605,0,0,0,.487-.444c.168-.195.739-1.01.877-1.248a5.285,5.285,0,0,0,.646-1.952,6.492,6.492,0,0,0-.134-2.22,7.042,7.042,0,0,0-.236-.832,4.95,4.95,0,0,0-1.018-1.711,7.674,7.674,0,0,0-1.2-1.075q-.282-.216-.585-.407c-.216-.126-1.3-.592-1.544-.677a10.346,10.346,0,0,0-1.32-.332,14.934,14.934,0,0,0-2.866-.24,12.313,12.313,0,0,0-2.864.359,8.065,8.065,0,0,0-1.386.457c-.42.187-.965.477-1.444.737-.661.361-.384.584-.215.788.032.047.064.092.1.136l.026.034.064.056.024.018.092.061c.057.037.157.092.227.13" transform="translate(-151.328 -110.502)" fill="#e50019" fill-rule="evenodd"/>
        <path id="Path_15" data-name="Path 15" d="M187.335,118.015c.152-.021.3-.044.456-.069a2.69,2.69,0,0,0,1.573-.731l.042-.047a1.012,1.012,0,0,0-.129-1.453,1.112,1.112,0,0,0-.4-.2,1.711,1.711,0,0,0-.816-.02,1.472,1.472,0,0,0-.854.529,2.3,2.3,0,0,0-.4,1.131c-.011.088-.021.177-.03.265C186.747,117.74,186.815,118.087,187.335,118.015Zm-3.035-4.7a2.588,2.588,0,0,0,.3.143c.075.028.434.154.527.179a3.375,3.375,0,0,0,.669.09,5.432,5.432,0,0,0,.938-.065,2.3,2.3,0,0,0,.3-.112c.166-.077.33-.155.494-.235.083-.041.17-.077.256-.111a2.622,2.622,0,0,1,.375-.1c.149-.028.3-.053.451-.074a6.47,6.47,0,0,1,.943-.066,4.268,4.268,0,0,1,.9.121,2.617,2.617,0,0,1,.877.381,3.694,3.694,0,0,1,1.51,2.058,5.548,5.548,0,0,1-.047,3.295,3.877,3.877,0,0,1-.35.782,5.284,5.284,0,0,1-1.658,1.554,2.318,2.318,0,0,1-1.651.187,3.335,3.335,0,0,1-1.243-.815,2.02,2.02,0,0,1-.278-.422,2.4,2.4,0,0,1-.189-.545c-.037-.176-.068-.354-.1-.532.2-.028.2-.025.346-.041a2.357,2.357,0,0,1,.26-.017h.034l.109-.018.14-.031c.375-.089.7-.183,1.073-.285a3.027,3.027,0,0,0,.312-.1q.282-.139.553-.3l.255-.147c.127-.074.254-.152.376-.234a3.175,3.175,0,0,0,.471-.41,1.447,1.447,0,0,0,.375-1.5,1.98,1.98,0,0,0-.406-.664,2.489,2.489,0,0,0-.625-.5,3.37,3.37,0,0,0-.782-.317,5.123,5.123,0,0,0-.805-.148,8.258,8.258,0,0,0-.868-.042,8.538,8.538,0,0,0-1.809.206,7.983,7.983,0,0,0-.916.26,5.447,5.447,0,0,0-1,.464,6.328,6.328,0,0,0-.907.67,3.32,3.32,0,0,0-.339.348,8.4,8.4,0,0,0-.594,1.051,4.234,4.234,0,0,0-.174.551,3.194,3.194,0,0,0-.026,1.3q.056.322.143.638a3.1,3.1,0,0,0,.87,1.635,5.853,5.853,0,0,0,1.034.918c.141.1.286.19.433.279q.32.178.65.337l.33.162.221.105c.133.065.27.126.409.181s.876.187,1.007.213c.276.054.554.1.832.142.376.044.754.075,1.132.092.4.017.843.007,1.245-.013a13.6,13.6,0,0,0,1.573-.149,9.055,9.055,0,0,0,1.7-.458c.179-.068.353-.141.527-.221q.312-.138.611-.3c.18-.1.562-.37.747-.5q.369-.252.723-.522a4.605,4.605,0,0,0,.487-.444c.168-.195.739-1.01.877-1.248a5.285,5.285,0,0,0,.646-1.952,6.492,6.492,0,0,0-.134-2.22,7.042,7.042,0,0,0-.236-.832,4.95,4.95,0,0,0-1.018-1.711,7.674,7.674,0,0,0-1.2-1.075q-.282-.216-.585-.407c-.216-.126-1.3-.592-1.544-.677a10.346,10.346,0,0,0-1.32-.332,14.934,14.934,0,0,0-2.866-.24,12.313,12.313,0,0,0-2.864.359,8.065,8.065,0,0,0-1.386.457c-.42.187-.965.477-1.444.737-.661.361-.384.584-.215.788.032.047.064.092.1.136l.026.034.064.056.024.018.092.061C184.131,113.221,184.231,113.275,184.3,113.313Z" transform="translate(-151.328 -110.502)" fill="none"/>
      </g>
      <g id="Group_2" data-name="Group 2" transform="translate(63.744 126.416)">
        <path id="Path_16" data-name="Path 16" d="M162.217,158.251a30.329,30.329,0,0,1,.832-4.326,21.413,21.413,0,0,1,.958-2.716c.254-.566,1.4-2.836,1.862-3.764l-2.5.005q-1,0-2,.059c-2.773.171-6.339,1.678-7.357,4.836a9.7,9.7,0,0,0-.323,1.314,18.732,18.732,0,0,0-.232,4.238v.033c.049.6.1,1.2.156,1.8Q151,156.4,148.37,153.09l-.747-.914c-.2-.242-.4-.477-.619-.7a7.032,7.032,0,0,0-1.884-1.141l.007,0a7.072,7.072,0,0,0-2.147-.5,6.456,6.456,0,0,0-2.139.2,6.2,6.2,0,0,0-2.163,1.059,2.168,2.168,0,0,0-.4.38,1.985,1.985,0,0,0-.407,1.583l.316,2.984q.187,1.666.285,3.344a36.827,36.827,0,0,1-.375,6.419,21.108,21.108,0,0,1-.437,2.545c-.392,1.637-.849,3.256-1.294,4.876l2.056-.073q1.268-.046,2.529-.157c.351-.033.7-.074,1.052-.125a7.461,7.461,0,0,0,3.9-1.755,5.238,5.238,0,0,0,1.221-1.612l.07-.14.092-.352.065-.33c.176-1.024.352-2.448.49-3.537.059-.44.1-.882.127-1.327,0-.462.009-.925.009-1.389q2.04,2.765,4.119,5.5.729.964,1.5,1.894a12.447,12.447,0,0,0,2.076,2.027,7.287,7.287,0,0,0,3.1,1.389,1.359,1.359,0,0,0,.278.02l.208-.012a15.233,15.233,0,0,0,1.942-.544l.389-.145.224-.1s.265-.161.315-.2a12.2,12.2,0,0,0,.978-1.121l.5-.662q-.584-2.059-1.078-4.145c-.124-.579-.224-1.165-.3-1.752Z" transform="translate(-104.715 -147.284)" fill="none"/>
        <path id="Path_17" data-name="Path 17" d="M162.217,158.251a30.329,30.329,0,0,1,.832-4.326,21.413,21.413,0,0,1,.958-2.716c.254-.566,1.4-2.836,1.862-3.764l-2.5.005q-1,0-2,.059c-2.773.171-6.339,1.678-7.357,4.836a9.7,9.7,0,0,0-.323,1.314,18.732,18.732,0,0,0-.232,4.238v.033c.049.6.1,1.2.156,1.8Q151,156.4,148.37,153.09l-.747-.914c-.2-.242-.4-.477-.619-.7a7.032,7.032,0,0,0-1.884-1.141l.007,0a7.072,7.072,0,0,0-2.147-.5,6.456,6.456,0,0,0-2.139.2,6.2,6.2,0,0,0-2.163,1.059,2.168,2.168,0,0,0-.4.38,1.985,1.985,0,0,0-.407,1.583l.316,2.984q.187,1.666.285,3.344a36.827,36.827,0,0,1-.375,6.419,21.108,21.108,0,0,1-.437,2.545c-.392,1.637-.849,3.256-1.294,4.876l2.056-.073q1.268-.046,2.529-.157c.351-.033.7-.074,1.052-.125a7.461,7.461,0,0,0,3.9-1.755,5.238,5.238,0,0,0,1.221-1.612l.07-.14.092-.352.065-.33c.176-1.024.352-2.448.49-3.537.059-.44.1-.882.127-1.327,0-.462.009-.925.009-1.389q2.04,2.765,4.119,5.5.729.964,1.5,1.894a12.447,12.447,0,0,0,2.076,2.027,7.287,7.287,0,0,0,3.1,1.389,1.359,1.359,0,0,0,.278.02l.208-.012a15.233,15.233,0,0,0,1.942-.544l.389-.145.224-.1s.265-.161.315-.2a12.2,12.2,0,0,0,.978-1.121l.5-.662q-.584-2.059-1.078-4.145c-.124-.579-.224-1.165-.3-1.752Z" transform="translate(-104.715 -147.284)" fill="#e50019" fill-rule="evenodd"/>
        <path id="Path_18" data-name="Path 18" d="M162.217,158.251a30.329,30.329,0,0,1,.832-4.326,21.413,21.413,0,0,1,.958-2.716c.254-.566,1.4-2.836,1.862-3.764l-2.5.005q-1,0-2,.059c-2.773.171-6.339,1.678-7.357,4.836a9.7,9.7,0,0,0-.323,1.314,18.732,18.732,0,0,0-.232,4.238v.033c.049.6.1,1.2.156,1.8Q151,156.4,148.37,153.09l-.747-.914c-.2-.242-.4-.477-.619-.7a7.032,7.032,0,0,0-1.884-1.141l.007,0a7.072,7.072,0,0,0-2.147-.5,6.456,6.456,0,0,0-2.139.2,6.2,6.2,0,0,0-2.163,1.059,2.168,2.168,0,0,0-.4.38,1.985,1.985,0,0,0-.407,1.583l.316,2.984q.187,1.666.285,3.344a36.827,36.827,0,0,1-.375,6.419,21.108,21.108,0,0,1-.437,2.545c-.392,1.637-.849,3.256-1.294,4.876l2.056-.073q1.268-.046,2.529-.157c.351-.033.7-.074,1.052-.125a7.461,7.461,0,0,0,3.9-1.755,5.238,5.238,0,0,0,1.221-1.612l.07-.14.092-.352.065-.33c.176-1.024.352-2.448.49-3.537.059-.44.1-.882.127-1.327,0-.462.009-.925.009-1.389q2.04,2.765,4.119,5.5.729.964,1.5,1.894a12.447,12.447,0,0,0,2.076,2.027,7.287,7.287,0,0,0,3.1,1.389,1.359,1.359,0,0,0,.278.02l.208-.012a15.233,15.233,0,0,0,1.942-.544l.389-.145.224-.1s.265-.161.315-.2a12.2,12.2,0,0,0,.978-1.121l.5-.662q-.584-2.059-1.078-4.145c-.124-.579-.224-1.165-.3-1.752Z" transform="translate(-104.715 -147.284)" fill="none"/>
        <path id="Path_19" data-name="Path 19" d="M210.817,160.827l.248.441q.76-.04,1.517-.122l.448-.058c.207-.044.409-.1.61-.164l.411-.129c.287-.089.569-.193.846-.309a9.441,9.441,0,0,0,.91-.5,6.26,6.26,0,0,0,.771-.567,6.7,6.7,0,0,0,1.2-1.4,4.267,4.267,0,0,0,.523-1.148,5.742,5.742,0,0,0,.208-1.137,8.2,8.2,0,0,0,.011-1.171q-.032-.525-.115-1.043a5.635,5.635,0,0,0-.322-1.219,2.54,2.54,0,0,0-.63-.935,2.633,2.633,0,0,0-1.921-.559,3.913,3.913,0,0,0-2.677.981A4.229,4.229,0,0,0,212,153a7.894,7.894,0,0,0-.475,1.261,13.37,13.37,0,0,0-.367,1.738c-.158,1.1-.222,1.946-.3,3.158l-.093,1.426a.5.5,0,0,0,0,.135.425.425,0,0,0,.052.112m11.675,1.024c.213-.108.419-.22.619-.334a22.613,22.613,0,0,0,2.06-1.426l.045-.038a7.711,7.711,0,0,0,1.034-1.205,6.272,6.272,0,0,0,.961-5.512,7.517,7.517,0,0,0-3.665-4.218,14.339,14.339,0,0,0-8.643-2,21.319,21.319,0,0,0-2.514.3,13.752,13.752,0,0,0-2.806.815,12.482,12.482,0,0,0-4.9,3.752,11.091,11.091,0,0,0-1.835,2.936q-.247.583-.474,1.179c-.111.33-.214.665-.3,1-.385,1.428-.11.414-.309,1.179a4.6,4.6,0,0,0-.1.479l-.008.075c-.039.5-.1.993-.169,1.486l-.008.043-4.652-.128.719,1.4c.18.353.376.7.582,1.034a3.657,3.657,0,0,0,.544.645,4.739,4.739,0,0,0,1.333.889,3.373,3.373,0,0,0,.915.271,4.146,4.146,0,0,0,.479.039c.063,0,.127.007.191.013l.107.112a1.051,1.051,0,0,1,.027.112l.1.458a8.779,8.779,0,0,0,.509,1.464,11.922,11.922,0,0,0,.753,1.417,13.783,13.783,0,0,0,.93,1.313,10.638,10.638,0,0,0,1.276,1.335,10.867,10.867,0,0,0,1.7,1.217,12.425,12.425,0,0,0,2.051.959c.277.1.559.187.842.265l.721.2.71.194c.357.1.717.187,1.077.266a16.779,16.779,0,0,0,2.542.258,17.4,17.4,0,0,0,8.361-1.742,11.249,11.249,0,0,0,1.192-.738,10.756,10.756,0,0,0,1.156-.931,4.4,4.4,0,0,0,1.629-3.053,3.616,3.616,0,0,0-.109-.836,4,4,0,0,0-.338-.93,6.263,6.263,0,0,0-3.591-2.616c-.234-.071-.554-.152-.9-.237-1.266-.307-2.793-.17-2.923,1.127-.033.325-.071.651-.114.975a10.393,10.393,0,0,1-.362,1.413A7.4,7.4,0,0,1,218.3,168a3.6,3.6,0,0,1-.346.429,4.665,4.665,0,0,1-.991.808,2.156,2.156,0,0,1-2.039.14,5.625,5.625,0,0,1-.618-.276,4.968,4.968,0,0,1-1.117-.723,5.1,5.1,0,0,1-.861-1.188l-.012-.02a4.312,4.312,0,0,1-.5-1.312,10.607,10.607,0,0,1-.167-1.518,30.57,30.57,0,0,0,6.855-.937Z" transform="translate(-138.828 -147.075)" fill="#e50019" fill-rule="evenodd"/>
        <path id="Path_20" data-name="Path 20" d="M210.817,160.827l.248.441q.76-.04,1.517-.122l.448-.058c.207-.044.409-.1.61-.164l.411-.129c.287-.089.569-.193.846-.309a9.441,9.441,0,0,0,.91-.5,6.26,6.26,0,0,0,.771-.567,6.7,6.7,0,0,0,1.2-1.4,4.267,4.267,0,0,0,.523-1.148,5.742,5.742,0,0,0,.208-1.137,8.2,8.2,0,0,0,.011-1.171q-.032-.525-.115-1.043a5.635,5.635,0,0,0-.322-1.219,2.54,2.54,0,0,0-.63-.935,2.633,2.633,0,0,0-1.921-.559,3.913,3.913,0,0,0-2.677.981A4.229,4.229,0,0,0,212,153a7.894,7.894,0,0,0-.475,1.261,13.37,13.37,0,0,0-.367,1.738c-.158,1.1-.222,1.946-.3,3.158l-.093,1.426a.5.5,0,0,0,0,.135A.425.425,0,0,0,210.817,160.827Zm11.675,1.024c.213-.108.419-.22.619-.334a22.613,22.613,0,0,0,2.06-1.426l.045-.038a7.711,7.711,0,0,0,1.034-1.205,6.272,6.272,0,0,0,.961-5.512,7.517,7.517,0,0,0-3.665-4.218,14.339,14.339,0,0,0-8.643-2,21.319,21.319,0,0,0-2.514.3,13.752,13.752,0,0,0-2.806.815,12.482,12.482,0,0,0-4.9,3.752,11.091,11.091,0,0,0-1.835,2.936q-.247.583-.474,1.179c-.111.33-.214.665-.3,1-.385,1.428-.11.414-.309,1.179a4.6,4.6,0,0,0-.1.479l-.008.075c-.039.5-.1.993-.169,1.486l-.008.043-4.652-.128.719,1.4c.18.353.376.7.582,1.034a3.657,3.657,0,0,0,.544.645,4.739,4.739,0,0,0,1.333.889,3.373,3.373,0,0,0,.915.271,4.146,4.146,0,0,0,.479.039c.063,0,.127.007.191.013l.107.112a1.051,1.051,0,0,1,.027.112l.1.458a8.779,8.779,0,0,0,.509,1.464,11.922,11.922,0,0,0,.753,1.417,13.783,13.783,0,0,0,.93,1.313,10.638,10.638,0,0,0,1.276,1.335,10.867,10.867,0,0,0,1.7,1.217,12.425,12.425,0,0,0,2.051.959c.277.1.559.187.842.265l.721.2.71.194c.357.1.717.187,1.077.266a16.779,16.779,0,0,0,2.542.258,17.4,17.4,0,0,0,8.361-1.742,11.249,11.249,0,0,0,1.192-.738,10.756,10.756,0,0,0,1.156-.931,4.4,4.4,0,0,0,1.629-3.053,3.616,3.616,0,0,0-.109-.836,4,4,0,0,0-.338-.93,6.263,6.263,0,0,0-3.591-2.616c-.234-.071-.554-.152-.9-.237-1.266-.307-2.793-.17-2.923,1.127-.033.325-.071.651-.114.975a10.393,10.393,0,0,1-.362,1.413A7.4,7.4,0,0,1,218.3,168a3.6,3.6,0,0,1-.346.429,4.665,4.665,0,0,1-.991.808,2.156,2.156,0,0,1-2.039.14,5.625,5.625,0,0,1-.618-.276,4.968,4.968,0,0,1-1.117-.723,5.1,5.1,0,0,1-.861-1.188l-.012-.02a4.312,4.312,0,0,1-.5-1.312,10.607,10.607,0,0,1-.167-1.518,30.57,30.57,0,0,0,6.855-.937Z" transform="translate(-138.828 -147.075)" fill="none"/>
        <path id="Path_21" data-name="Path 21" d="M210.817,160.827l.248.441q.76-.04,1.517-.122l.448-.058c.207-.044.409-.1.61-.164l.411-.129c.287-.089.569-.193.846-.309a9.441,9.441,0,0,0,.91-.5,6.26,6.26,0,0,0,.771-.567,6.7,6.7,0,0,0,1.2-1.4,4.267,4.267,0,0,0,.523-1.148,5.742,5.742,0,0,0,.208-1.137,8.2,8.2,0,0,0,.011-1.171q-.032-.525-.115-1.043a5.635,5.635,0,0,0-.322-1.219,2.54,2.54,0,0,0-.63-.935,2.633,2.633,0,0,0-1.921-.559,3.913,3.913,0,0,0-2.677.981A4.229,4.229,0,0,0,212,153a7.894,7.894,0,0,0-.475,1.261,13.37,13.37,0,0,0-.367,1.738c-.158,1.1-.222,1.946-.3,3.158l-.093,1.426a.5.5,0,0,0,0,.135A.425.425,0,0,0,210.817,160.827Zm11.675,1.024c.213-.108.419-.22.619-.334a22.613,22.613,0,0,0,2.06-1.426l.045-.038a7.711,7.711,0,0,0,1.034-1.205,6.272,6.272,0,0,0,.961-5.512,7.517,7.517,0,0,0-3.665-4.218,14.339,14.339,0,0,0-8.643-2,21.319,21.319,0,0,0-2.514.3,13.752,13.752,0,0,0-2.806.815,12.482,12.482,0,0,0-4.9,3.752,11.091,11.091,0,0,0-1.835,2.936q-.247.583-.474,1.179c-.111.33-.214.665-.3,1-.385,1.428-.11.414-.309,1.179a4.6,4.6,0,0,0-.1.479l-.008.075c-.039.5-.1.993-.169,1.486l-.008.043-4.652-.128.719,1.4c.18.353.376.7.582,1.034a3.657,3.657,0,0,0,.544.645,4.739,4.739,0,0,0,1.333.889,3.373,3.373,0,0,0,.915.271,4.146,4.146,0,0,0,.479.039c.063,0,.127.007.191.013l.107.112a1.051,1.051,0,0,1,.027.112l.1.458a8.779,8.779,0,0,0,.509,1.464,11.922,11.922,0,0,0,.753,1.417,13.783,13.783,0,0,0,.93,1.313,10.638,10.638,0,0,0,1.276,1.335,10.867,10.867,0,0,0,1.7,1.217,12.425,12.425,0,0,0,2.051.959c.277.1.559.187.842.265l.721.2.71.194c.357.1.717.187,1.077.266a16.779,16.779,0,0,0,2.542.258,17.4,17.4,0,0,0,8.361-1.742,11.249,11.249,0,0,0,1.192-.738,10.756,10.756,0,0,0,1.156-.931,4.4,4.4,0,0,0,1.629-3.053,3.616,3.616,0,0,0-.109-.836,4,4,0,0,0-.338-.93,6.263,6.263,0,0,0-3.591-2.616c-.234-.071-.554-.152-.9-.237-1.266-.307-2.793-.17-2.923,1.127-.033.325-.071.651-.114.975a10.393,10.393,0,0,1-.362,1.413A7.4,7.4,0,0,1,218.3,168a3.6,3.6,0,0,1-.346.429,4.665,4.665,0,0,1-.991.808,2.156,2.156,0,0,1-2.039.14,5.625,5.625,0,0,1-.618-.276,4.968,4.968,0,0,1-1.117-.723,5.1,5.1,0,0,1-.861-1.188l-.012-.02a4.312,4.312,0,0,1-.5-1.312,10.607,10.607,0,0,1-.167-1.518,30.57,30.57,0,0,0,6.855-.937Z" transform="translate(-138.828 -147.075)" fill="none"/>
        <path id="Path_22" data-name="Path 22" d="M77.734,160.827l.247.441q.76-.04,1.517-.122l.45-.058c.206-.044.409-.1.61-.164l.411-.129c.287-.089.569-.193.845-.309a9.456,9.456,0,0,0,.911-.5,6.155,6.155,0,0,0,.77-.567,6.677,6.677,0,0,0,1.2-1.4,4.266,4.266,0,0,0,.523-1.148,5.742,5.742,0,0,0,.208-1.137,8.206,8.206,0,0,0,.011-1.171q-.032-.525-.115-1.043A5.513,5.513,0,0,0,85,152.3a2.514,2.514,0,0,0-.63-.935,2.63,2.63,0,0,0-1.92-.559,3.913,3.913,0,0,0-2.677.981A4.249,4.249,0,0,0,78.912,153a7.893,7.893,0,0,0-.474,1.261A13.371,13.371,0,0,0,78.07,156c-.157,1.1-.222,1.946-.3,3.158l-.093,1.426a.465.465,0,0,0,0,.135.4.4,0,0,0,.052.112m11.675,1.024c.213-.108.419-.22.618-.334a22.626,22.626,0,0,0,2.061-1.426l.045-.038a7.805,7.805,0,0,0,1.034-1.205,6.275,6.275,0,0,0,.961-5.512,7.516,7.516,0,0,0-3.664-4.218,14.343,14.343,0,0,0-8.643-2,21.363,21.363,0,0,0-2.514.3,13.784,13.784,0,0,0-2.806.815,12.481,12.481,0,0,0-4.894,3.752,11.1,11.1,0,0,0-1.836,2.936q-.246.583-.474,1.179-.168.495-.3,1c-.386,1.428-.111.414-.309,1.179a4.385,4.385,0,0,0-.1.479l-.008.075c-.04.5-.1.993-.17,1.486l-.007.043-4.652-.128.719,1.4c.18.353.375.7.582,1.034a3.62,3.62,0,0,0,.544.645,4.724,4.724,0,0,0,1.331.889,3.4,3.4,0,0,0,.915.271,4.178,4.178,0,0,0,.479.039c.064,0,.128.007.191.013l.108.112c.01.036.02.074.027.112l.1.458a8.7,8.7,0,0,0,.509,1.464A11.852,11.852,0,0,0,70,168.092a13.631,13.631,0,0,0,.93,1.313A10.638,10.638,0,0,0,72.2,170.74a10.867,10.867,0,0,0,1.7,1.217,12.465,12.465,0,0,0,2.05.959c.277.1.56.187.843.265l.72.2.711.194c.357.1.718.187,1.078.266a16.773,16.773,0,0,0,2.541.258,17.4,17.4,0,0,0,8.361-1.742,11.326,11.326,0,0,0,1.192-.738,10.678,10.678,0,0,0,1.157-.931,4.407,4.407,0,0,0,1.629-3.053,3.571,3.571,0,0,0-.11-.836,3.924,3.924,0,0,0-.338-.93,6.264,6.264,0,0,0-3.59-2.616c-.234-.071-.554-.152-.9-.237-1.266-.307-2.793-.17-2.923,1.127-.032.325-.071.651-.113.975a10.4,10.4,0,0,1-.363,1.413A7.4,7.4,0,0,1,85.222,168a3.6,3.6,0,0,1-.346.429,4.7,4.7,0,0,1-.99.808,2.387,2.387,0,0,1-.563.251,2.35,2.35,0,0,1-1.478-.11,5.817,5.817,0,0,1-.618-.276,4.988,4.988,0,0,1-1.117-.723,5.082,5.082,0,0,1-.86-1.188l-.012-.02a4.324,4.324,0,0,1-.506-1.312,10.733,10.733,0,0,1-.167-1.518,30.556,30.556,0,0,0,6.855-.937Z" transform="translate(-63.744 -147.075)" fill="#e50019" fill-rule="evenodd"/>
        <path id="Path_23" data-name="Path 23" d="M77.734,160.827l.247.441q.76-.04,1.517-.122l.45-.058c.206-.044.409-.1.61-.164l.411-.129c.287-.089.569-.193.845-.309a9.456,9.456,0,0,0,.911-.5,6.155,6.155,0,0,0,.77-.567,6.677,6.677,0,0,0,1.2-1.4,4.266,4.266,0,0,0,.523-1.148,5.742,5.742,0,0,0,.208-1.137,8.206,8.206,0,0,0,.011-1.171q-.032-.525-.115-1.043A5.513,5.513,0,0,0,85,152.3a2.514,2.514,0,0,0-.63-.935,2.63,2.63,0,0,0-1.92-.559,3.913,3.913,0,0,0-2.677.981A4.249,4.249,0,0,0,78.912,153a7.893,7.893,0,0,0-.474,1.261A13.371,13.371,0,0,0,78.07,156c-.157,1.1-.222,1.946-.3,3.158l-.093,1.426a.465.465,0,0,0,0,.135A.4.4,0,0,0,77.734,160.827Zm11.675,1.024c.213-.108.419-.22.618-.334a22.626,22.626,0,0,0,2.061-1.426l.045-.038a7.805,7.805,0,0,0,1.034-1.205,6.275,6.275,0,0,0,.961-5.512,7.516,7.516,0,0,0-3.664-4.218,14.343,14.343,0,0,0-8.643-2,21.363,21.363,0,0,0-2.514.3,13.784,13.784,0,0,0-2.806.815,12.481,12.481,0,0,0-4.894,3.752,11.1,11.1,0,0,0-1.836,2.936q-.246.583-.474,1.179-.168.495-.3,1c-.386,1.428-.111.414-.309,1.179a4.385,4.385,0,0,0-.1.479l-.008.075c-.04.5-.1.993-.17,1.486l-.007.043-4.652-.128.719,1.4c.18.353.375.7.582,1.034a3.62,3.62,0,0,0,.544.645,4.724,4.724,0,0,0,1.331.889,3.4,3.4,0,0,0,.915.271,4.178,4.178,0,0,0,.479.039c.064,0,.128.007.191.013l.108.112c.01.036.02.074.027.112l.1.458a8.7,8.7,0,0,0,.509,1.464A11.852,11.852,0,0,0,70,168.092a13.631,13.631,0,0,0,.93,1.313A10.638,10.638,0,0,0,72.2,170.74a10.867,10.867,0,0,0,1.7,1.217,12.465,12.465,0,0,0,2.05.959c.277.1.56.187.843.265l.72.2.711.194c.357.1.718.187,1.078.266a16.773,16.773,0,0,0,2.541.258,17.4,17.4,0,0,0,8.361-1.742,11.326,11.326,0,0,0,1.192-.738,10.678,10.678,0,0,0,1.157-.931,4.407,4.407,0,0,0,1.629-3.053,3.571,3.571,0,0,0-.11-.836,3.924,3.924,0,0,0-.338-.93,6.264,6.264,0,0,0-3.59-2.616c-.234-.071-.554-.152-.9-.237-1.266-.307-2.793-.17-2.923,1.127-.032.325-.071.651-.113.975a10.4,10.4,0,0,1-.363,1.413A7.4,7.4,0,0,1,85.222,168a3.6,3.6,0,0,1-.346.429,4.7,4.7,0,0,1-.99.808,2.387,2.387,0,0,1-.563.251,2.35,2.35,0,0,1-1.478-.11,5.817,5.817,0,0,1-.618-.276,4.988,4.988,0,0,1-1.117-.723,5.082,5.082,0,0,1-.86-1.188l-.012-.02a4.324,4.324,0,0,1-.506-1.312,10.733,10.733,0,0,1-.167-1.518,30.556,30.556,0,0,0,6.855-.937Z" transform="translate(-63.744 -147.075)" fill="none"/>
        <path id="Path_24" data-name="Path 24" d="M77.734,160.827l.247.441q.76-.04,1.517-.122l.45-.058c.206-.044.409-.1.61-.164l.411-.129c.287-.089.569-.193.845-.309a9.456,9.456,0,0,0,.911-.5,6.155,6.155,0,0,0,.77-.567,6.677,6.677,0,0,0,1.2-1.4,4.266,4.266,0,0,0,.523-1.148,5.742,5.742,0,0,0,.208-1.137,8.206,8.206,0,0,0,.011-1.171q-.032-.525-.115-1.043A5.513,5.513,0,0,0,85,152.3a2.514,2.514,0,0,0-.63-.935,2.63,2.63,0,0,0-1.92-.559,3.913,3.913,0,0,0-2.677.981A4.249,4.249,0,0,0,78.912,153a7.893,7.893,0,0,0-.474,1.261A13.371,13.371,0,0,0,78.07,156c-.157,1.1-.222,1.946-.3,3.158l-.093,1.426a.465.465,0,0,0,0,.135A.4.4,0,0,0,77.734,160.827Zm11.675,1.024c.213-.108.419-.22.618-.334a22.626,22.626,0,0,0,2.061-1.426l.045-.038a7.805,7.805,0,0,0,1.034-1.205,6.275,6.275,0,0,0,.961-5.512,7.516,7.516,0,0,0-3.664-4.218,14.343,14.343,0,0,0-8.643-2,21.363,21.363,0,0,0-2.514.3,13.784,13.784,0,0,0-2.806.815,12.481,12.481,0,0,0-4.894,3.752,11.1,11.1,0,0,0-1.836,2.936q-.246.583-.474,1.179-.168.495-.3,1c-.386,1.428-.111.414-.309,1.179a4.385,4.385,0,0,0-.1.479l-.008.075c-.04.5-.1.993-.17,1.486l-.007.043-4.652-.128.719,1.4c.18.353.375.7.582,1.034a3.62,3.62,0,0,0,.544.645,4.724,4.724,0,0,0,1.331.889,3.4,3.4,0,0,0,.915.271,4.178,4.178,0,0,0,.479.039c.064,0,.128.007.191.013l.108.112c.01.036.02.074.027.112l.1.458a8.7,8.7,0,0,0,.509,1.464A11.852,11.852,0,0,0,70,168.092a13.631,13.631,0,0,0,.93,1.313A10.638,10.638,0,0,0,72.2,170.74a10.867,10.867,0,0,0,1.7,1.217,12.465,12.465,0,0,0,2.05.959c.277.1.56.187.843.265l.72.2.711.194c.357.1.718.187,1.078.266a16.773,16.773,0,0,0,2.541.258,17.4,17.4,0,0,0,8.361-1.742,11.326,11.326,0,0,0,1.192-.738,10.678,10.678,0,0,0,1.157-.931,4.407,4.407,0,0,0,1.629-3.053,3.571,3.571,0,0,0-.11-.836,3.924,3.924,0,0,0-.338-.93,6.264,6.264,0,0,0-3.59-2.616c-.234-.071-.554-.152-.9-.237-1.266-.307-2.793-.17-2.923,1.127-.032.325-.071.651-.113.975a10.4,10.4,0,0,1-.363,1.413A7.4,7.4,0,0,1,85.222,168a3.6,3.6,0,0,1-.346.429,4.7,4.7,0,0,1-.99.808,2.387,2.387,0,0,1-.563.251,2.35,2.35,0,0,1-1.478-.11,5.817,5.817,0,0,1-.618-.276,4.988,4.988,0,0,1-1.117-.723,5.082,5.082,0,0,1-.86-1.188l-.012-.02a4.324,4.324,0,0,1-.506-1.312,10.733,10.733,0,0,1-.167-1.518,30.556,30.556,0,0,0,6.855-.937Z" transform="translate(-63.744 -147.075)" fill="none"/>
        <path id="Path_25" data-name="Path 25" d="M93.4,147.355l-.633,0-.006.06c0,.024.017.042.16.152a.864.864,0,0,0,.342.209,1,1,0,0,0,.151.025Z" transform="translate(-80.116 -147.233)" fill="#fff" fill-rule="evenodd"/>
        <path id="Path_26" data-name="Path 26" d="M93.4,147.355l-.633,0-.006.06c0,.024.017.042.16.152a.864.864,0,0,0,.342.209,1,1,0,0,0,.151.025Z" transform="translate(-80.116 -147.233)" fill="none"/>
        <path id="Path_27" data-name="Path 27" d="M101.375,148.966c.071.02.077.007.064-.128a1.088,1.088,0,0,0-.046-.258c-.038-.115-.045-.128-.069-.135-.077-.026-.105.073-.015.37.039.129.044.143.067.15" transform="translate(-84.906 -147.846)" fill="#e50019" fill-rule="evenodd"/>
        <path id="Path_28" data-name="Path 28" d="M101.375,148.966c.071.02.077.007.064-.128a1.088,1.088,0,0,0-.046-.258c-.038-.115-.045-.128-.069-.135-.077-.026-.105.073-.015.37C101.348,148.945,101.353,148.959,101.375,148.966Z" transform="translate(-84.906 -147.846)" fill="none"/>
      </g>
    </g>
    <g id="Ellipse_2" data-name="Ellipse 2" transform="translate(4482 18)" fill="none" stroke="#face0b" stroke-width="1">
      <circle cx="53.5" cy="53.5" r="53.5" stroke="none"/>
      <circle cx="53.5" cy="53.5" r="53" fill="none"/>
    </g>
  </g>
</svg>
